<mxfile host="app.diagrams.net" modified="2023-12-13T09:37:18.016Z" agent="Mozilla/5.0 (Macintosh; Intel Mac OS X 10_15_7) AppleWebKit/537.36 (KHTML, like Gecko) Chrome/114.0.0.0 Safari/537.36" etag="ptZOvYYUqlpwQOxGoqh5" version="22.1.8" type="github">
  <diagram name="第 1 页" id="fpy4PnNVpPjukgoMfJgX">
    <mxGraphModel dx="2190" dy="880" grid="1" gridSize="10" guides="1" tooltips="1" connect="1" arrows="1" fold="1" page="1" pageScale="1" pageWidth="827" pageHeight="1169" math="0" shadow="0">
      <root>
        <mxCell id="0" />
        <mxCell id="1" parent="0" />
        <mxCell id="sRd97oEiG2m_yaLdsP5p-43" value="" style="rounded=0;whiteSpace=wrap;html=1;" vertex="1" parent="1">
          <mxGeometry x="-220" y="260" width="1120" height="640" as="geometry" />
        </mxCell>
        <mxCell id="sRd97oEiG2m_yaLdsP5p-14" value="" style="rounded=0;whiteSpace=wrap;html=1;" vertex="1" parent="1">
          <mxGeometry x="54" y="500" width="720" height="320" as="geometry" />
        </mxCell>
        <mxCell id="sRd97oEiG2m_yaLdsP5p-1" value="&lt;font style=&quot;font-size: 16px;&quot;&gt;宙斯盾数据迁移&lt;/font&gt;" style="rounded=1;whiteSpace=wrap;html=1;fillColor=#dae8fc;strokeColor=#6c8ebf;" vertex="1" parent="1">
          <mxGeometry x="220" y="310" width="270" height="40" as="geometry" />
        </mxCell>
        <mxCell id="sRd97oEiG2m_yaLdsP5p-46" style="edgeStyle=orthogonalEdgeStyle;rounded=0;orthogonalLoop=1;jettySize=auto;html=1;exitX=1;exitY=0.25;exitDx=0;exitDy=0;entryX=1;entryY=0.5;entryDx=0;entryDy=0;" edge="1" parent="1" source="sRd97oEiG2m_yaLdsP5p-12" target="sRd97oEiG2m_yaLdsP5p-13">
          <mxGeometry relative="1" as="geometry">
            <Array as="points">
              <mxPoint x="280" y="635" />
              <mxPoint x="280" y="550" />
            </Array>
          </mxGeometry>
        </mxCell>
        <mxCell id="sRd97oEiG2m_yaLdsP5p-12" value="anti_data_migration表" style="rounded=1;whiteSpace=wrap;html=1;fillColor=#e1d5e7;strokeColor=#9673a6;" vertex="1" parent="1">
          <mxGeometry x="125" y="620" width="120" height="60" as="geometry" />
        </mxCell>
        <mxCell id="sRd97oEiG2m_yaLdsP5p-27" style="edgeStyle=orthogonalEdgeStyle;rounded=0;orthogonalLoop=1;jettySize=auto;html=1;exitX=1;exitY=0.75;exitDx=0;exitDy=0;entryX=1;entryY=0.5;entryDx=0;entryDy=0;" edge="1" parent="1" source="sRd97oEiG2m_yaLdsP5p-12" target="sRd97oEiG2m_yaLdsP5p-18">
          <mxGeometry relative="1" as="geometry">
            <Array as="points">
              <mxPoint x="280" y="665" />
              <mxPoint x="280" y="760" />
            </Array>
          </mxGeometry>
        </mxCell>
        <mxCell id="sRd97oEiG2m_yaLdsP5p-29" value="&lt;font style=&quot;font-size: 16px;&quot;&gt;in&lt;/font&gt;" style="edgeLabel;html=1;align=center;verticalAlign=middle;resizable=0;points=[];" vertex="1" connectable="0" parent="sRd97oEiG2m_yaLdsP5p-27">
          <mxGeometry x="0.2839" relative="1" as="geometry">
            <mxPoint x="-10" y="-17" as="offset" />
          </mxGeometry>
        </mxCell>
        <mxCell id="sRd97oEiG2m_yaLdsP5p-13" value="anti_deviceid_ban" style="rounded=1;whiteSpace=wrap;html=1;fillColor=#e1d5e7;strokeColor=#9673a6;" vertex="1" parent="1">
          <mxGeometry x="130" y="520" width="110" height="60" as="geometry" />
        </mxCell>
        <mxCell id="sRd97oEiG2m_yaLdsP5p-49" style="edgeStyle=orthogonalEdgeStyle;rounded=0;orthogonalLoop=1;jettySize=auto;html=1;exitX=1;exitY=0.5;exitDx=0;exitDy=0;entryX=0;entryY=0.5;entryDx=0;entryDy=0;" edge="1" parent="1" source="sRd97oEiG2m_yaLdsP5p-15" target="sRd97oEiG2m_yaLdsP5p-12">
          <mxGeometry relative="1" as="geometry" />
        </mxCell>
        <mxCell id="sRd97oEiG2m_yaLdsP5p-50" value="迁移记录入库" style="edgeLabel;html=1;align=center;verticalAlign=middle;resizable=0;points=[];" vertex="1" connectable="0" parent="sRd97oEiG2m_yaLdsP5p-49">
          <mxGeometry x="-0.2805" y="-3" relative="1" as="geometry">
            <mxPoint as="offset" />
          </mxGeometry>
        </mxCell>
        <mxCell id="sRd97oEiG2m_yaLdsP5p-15" value="数据迁移记录&lt;br&gt;（uid、源机房、目的机房）" style="text;html=1;strokeColor=none;fillColor=none;align=center;verticalAlign=middle;whiteSpace=wrap;rounded=0;" vertex="1" parent="1">
          <mxGeometry x="-180" y="630" width="160" height="40" as="geometry" />
        </mxCell>
        <mxCell id="sRd97oEiG2m_yaLdsP5p-18" value="anti_verify_uid_email&lt;br&gt;_ip_daily表" style="rounded=1;whiteSpace=wrap;html=1;fillColor=#e1d5e7;strokeColor=#9673a6;" vertex="1" parent="1">
          <mxGeometry x="125" y="730" width="120" height="60" as="geometry" />
        </mxCell>
        <mxCell id="sRd97oEiG2m_yaLdsP5p-24" value="宙斯盾封禁接口" style="ellipse;whiteSpace=wrap;html=1;fillColor=#f5f5f5;strokeColor=#666666;fontColor=#333333;" vertex="1" parent="1">
          <mxGeometry x="380" y="550" width="100" height="70" as="geometry" />
        </mxCell>
        <mxCell id="sRd97oEiG2m_yaLdsP5p-30" style="edgeStyle=orthogonalEdgeStyle;rounded=0;orthogonalLoop=1;jettySize=auto;html=1;" edge="1" parent="1">
          <mxGeometry relative="1" as="geometry">
            <mxPoint x="280" y="590" as="sourcePoint" />
            <mxPoint x="380" y="590" as="targetPoint" />
          </mxGeometry>
        </mxCell>
        <mxCell id="sRd97oEiG2m_yaLdsP5p-32" value="&lt;font style=&quot;font-size: 15px;&quot;&gt;mysql&lt;/font&gt;" style="shape=cylinder3;whiteSpace=wrap;html=1;boundedLbl=1;backgroundOutline=1;size=15;fillColor=#dae8fc;strokeColor=#6c8ebf;" vertex="1" parent="1">
          <mxGeometry x="590" y="680" width="60" height="55" as="geometry" />
        </mxCell>
        <mxCell id="sRd97oEiG2m_yaLdsP5p-33" value="&lt;font style=&quot;font-size: 15px;&quot;&gt;redis&lt;/font&gt;" style="shape=cylinder3;whiteSpace=wrap;html=1;boundedLbl=1;backgroundOutline=1;size=15;fillColor=#dae8fc;strokeColor=#6c8ebf;" vertex="1" parent="1">
          <mxGeometry x="590" y="555" width="60" height="60" as="geometry" />
        </mxCell>
        <mxCell id="sRd97oEiG2m_yaLdsP5p-36" style="edgeStyle=orthogonalEdgeStyle;rounded=0;orthogonalLoop=1;jettySize=auto;html=1;entryX=0;entryY=1;entryDx=0;entryDy=-15;entryPerimeter=0;" edge="1" parent="1" target="sRd97oEiG2m_yaLdsP5p-32">
          <mxGeometry relative="1" as="geometry">
            <mxPoint x="285" y="720" as="sourcePoint" />
            <mxPoint x="575" y="720" as="targetPoint" />
            <Array as="points" />
          </mxGeometry>
        </mxCell>
        <mxCell id="sRd97oEiG2m_yaLdsP5p-38" style="edgeStyle=orthogonalEdgeStyle;rounded=0;orthogonalLoop=1;jettySize=auto;html=1;exitX=1;exitY=0.5;exitDx=0;exitDy=0;entryX=0;entryY=0;entryDx=0;entryDy=15;entryPerimeter=0;" edge="1" parent="1" source="sRd97oEiG2m_yaLdsP5p-24" target="sRd97oEiG2m_yaLdsP5p-32">
          <mxGeometry relative="1" as="geometry" />
        </mxCell>
        <mxCell id="sRd97oEiG2m_yaLdsP5p-47" style="edgeStyle=orthogonalEdgeStyle;rounded=0;orthogonalLoop=1;jettySize=auto;html=1;exitX=1;exitY=0.5;exitDx=0;exitDy=0;entryX=0;entryY=0.5;entryDx=0;entryDy=0;entryPerimeter=0;" edge="1" parent="1" source="sRd97oEiG2m_yaLdsP5p-24" target="sRd97oEiG2m_yaLdsP5p-33">
          <mxGeometry relative="1" as="geometry" />
        </mxCell>
        <mxCell id="sRd97oEiG2m_yaLdsP5p-48" value="&lt;font style=&quot;font-size: 16px;&quot;&gt;in&lt;/font&gt;" style="edgeLabel;html=1;align=center;verticalAlign=middle;resizable=0;points=[];" vertex="1" connectable="0" parent="1">
          <mxGeometry x="270.0026315789475" y="584.9957499605091" as="geometry" />
        </mxCell>
        <mxCell id="sRd97oEiG2m_yaLdsP5p-51" value="日本机房" style="rounded=1;whiteSpace=wrap;html=1;fillColor=#fff2cc;strokeColor=#d6b656;" vertex="1" parent="1">
          <mxGeometry x="145" y="410" width="100" height="60" as="geometry" />
        </mxCell>
        <mxCell id="sRd97oEiG2m_yaLdsP5p-52" value="马来西亚机房" style="rounded=1;whiteSpace=wrap;html=1;fillColor=#fff2cc;strokeColor=#d6b656;" vertex="1" parent="1">
          <mxGeometry x="560" y="410" width="90" height="60" as="geometry" />
        </mxCell>
      </root>
    </mxGraphModel>
  </diagram>
</mxfile>
